<?xml version="1.0" encoding="UTF-8"?>
<svg id="katman_2" data-name="katman 2" xmlns="http://www.w3.org/2000/svg" viewBox="0 0 396.49 342.36">
  <defs>
    <style>
      .cls-1 {
        fill: #ff6392;
      }
    </style>
  </defs>
  <g id="Layer_1" data-name="Layer 1">
    <g>
      <path class="cls-1" d="M132.98,129.16c4.55-43.14-8.93-86.2-42.56-129.16-22.09,2.58-43.5,12.34-60.45,29.29C2.93,56.33-5.81,94.75,3.74,129.16H132.98Z"/>
      <path class="cls-1" d="M157.75,129.16h81.09V15.48c-6.07,3.9-11.82,8.49-17.13,13.8l-23.46,23.46-23.46-23.46c-5.28-5.28-11-9.86-17.04-13.74v113.62Z"/>
      <path class="cls-1" d="M267.58,152.73c6.66,26.78,20.12,53.59,39.87,80.43l35.61-35.61,23.46-23.46c6.53-6.53,11.98-13.72,16.38-21.36h-115.31Z"/>
      <path class="cls-1" d="M263.49,129.16h129.26c9.55-34.41,.8-72.83-26.24-99.88C349.8,12.57,328.73,2.85,306.96,.11c-33.92,42.93-47.7,85.95-43.47,129.05Z"/>
      <path class="cls-1" d="M89.13,232.04c19.48-26.47,32.83-52.9,39.59-79.31H13.6c4.4,7.64,9.85,14.83,16.38,21.36l23.46,23.46,35.81,35.81c-.07-.42-.12-.86-.13-1.32Z"/>
      <path class="cls-1" d="M261.6,244.98c-12.57,0-22.76-5.28-22.76-11.8v-80.45h-81.09v79.31c0,6.52-10.19,11.8-22.76,11.8-8.26-.03-27.53,1.26-38.28-3.02l101.53,101.53,99.72-99.72c-10.99,3.45-28.58,2.31-36.37,2.34Z"/>
    </g>
  </g>
</svg>